<svg width="48" height="49" viewBox="0 0 48 49" fill="none" xmlns="http://www.w3.org/2000/svg">
<path d="M41.8983 34.8109V28.2163L5.69495 28.3537V48.0001H41.8983V41.4055H12.9356V34.8109H41.8983Z" fill="black" stroke="#FFCD00"/>
<path d="M4.88139 21.8369L6.10173 26.5029L41.0848 26.1296L41.4916 23.7033L42.3051 19.9705L46.3729 7.83892L44.5424 10.8251L42.3051 13.8114L35.7966 21.277L33.7627 13.8114L29.4916 22.2102L23.7966 1.86646L17.695 22.2102L15.4577 18.664L12.8136 13.8114L12.4068 16.9843L12 19.2239L11.1865 21.4636L9.35597 19.5972L8.13563 18.2907L2.8475 10.8251L0.813599 7.83892L1.62716 11.1984L2.64411 14.5579L3.66106 17.7308L4.88139 21.8369Z" fill="white" stroke="black"/>
<path d="M1.62712 6.71899C1.62712 6.84413 1.59356 6.96208 1.53426 7.06568C1.47556 7.16823 1.39163 7.2567 1.29004 7.32417C1.15612 7.41312 0.991512 7.46555 0.813559 7.46555C0.56281 7.46555 0.338556 7.36145 0.189319 7.19778C0.0711381 7.06817 0 6.9012 0 6.71899C0 6.53677 0.0711381 6.36981 0.189319 6.2402C0.338556 6.07653 0.56281 5.97243 0.813559 5.97243C1.03821 5.97243 1.2416 6.05599 1.38883 6.19109C1.53606 6.32619 1.62712 6.51283 1.62712 6.71899Z" fill="white"/>
<path d="M13.4237 12.6914C13.4237 13.1037 13.0595 13.4379 12.6102 13.4379C12.1609 13.4379 11.7966 13.1037 11.7966 12.6914C11.7966 12.2791 12.1609 11.9448 12.6102 11.9448C13.0595 11.9448 13.4237 12.2791 13.4237 12.6914Z" fill="white"/>
<path d="M24.8136 0.746558C24.8136 1.15887 24.4494 1.49312 24.0001 1.49312C23.5508 1.49312 23.1865 1.15887 23.1865 0.746558C23.1865 0.334245 23.5508 0 24.0001 0C24.4494 0 24.8136 0.334245 24.8136 0.746558Z" fill="white"/>
<path d="M34.5762 12.6914C34.5762 13.1037 34.212 13.4379 33.7627 13.4379C33.3133 13.4379 32.9491 13.1037 32.9491 12.6914C32.9491 12.2791 33.3133 11.9448 33.7627 11.9448C34.212 11.9448 34.5762 12.2791 34.5762 12.6914Z" fill="white"/>
<path d="M47.9999 6.71897C47.9999 7.13128 47.6357 7.46553 47.1864 7.46553C46.737 7.46553 46.3728 7.13128 46.3728 6.71897C46.3728 6.30666 46.737 5.97241 47.1864 5.97241C47.6357 5.97241 47.9999 6.30666 47.9999 6.71897Z" fill="white"/>
</svg>
